<svg version="1.1" id="Layer_1" xmlns="http://www.w3.org/2000/svg" xmlns:xlink="http://www.w3.org/1999/xlink" x="0px" y="0px"
	 width="100%" viewBox="0 0 500 500" enable-background="new 0 0 500 500" xml:space="preserve">
<path fill="#000000" opacity="1.000000" stroke="none" 
	d="
M315.000000,501.000000 
	C210.000031,501.000000 105.500053,501.000000 1.000056,501.000000 
	C1.000037,334.333405 1.000037,167.666794 1.000019,1.000146 
	C167.666565,1.000097 334.333130,1.000097 500.999756,1.000049 
	C500.999847,167.666519 500.999847,334.333038 500.999939,500.999786 
	C439.166656,501.000000 377.333344,501.000000 315.000000,501.000000 
M352.373749,208.986282 
	C352.703613,208.870087 352.852509,208.638077 353.045654,207.607635 
	C364.661224,195.873001 371.221924,182.204010 368.978546,165.284973 
	C367.216034,151.992325 359.390411,143.176498 347.895477,136.440857 
	C339.870544,131.406082 330.889221,133.021164 322.256012,133.194855 
	C319.093170,133.258484 315.977722,135.681320 312.125031,137.010696 
	C305.519531,141.447754 298.914062,145.884827 292.008514,150.523438 
	C292.008514,149.200546 292.103485,147.611877 291.992859,146.037643 
	C291.342773,136.784637 289.566925,127.509201 284.720184,119.764488 
	C277.567261,108.334671 267.276886,100.256790 253.156769,99.121796 
	C248.334320,98.734169 242.932053,98.674446 238.624603,100.463257 
	C232.911362,102.835869 227.525146,106.623138 222.872955,110.781029 
	C215.312576,117.538139 211.224075,126.449745 210.006546,136.582947 
	C209.441528,141.285614 208.894882,145.990479 208.231216,151.615540 
	C206.793808,150.245544 206.247345,149.656891 205.633469,149.149857 
	C197.439804,142.382660 189.159439,135.776642 177.586349,134.151428 
	C168.670609,132.244675 159.885712,131.500534 151.171555,137.316650 
	C142.263580,142.072571 136.040268,149.091660 132.270630,159.203827 
	C132.010818,160.455231 131.596466,161.696793 131.516068,162.959625 
	C130.965820,171.601364 129.208862,180.427505 135.025406,188.671295 
	C135.025406,188.671295 135.221390,189.123459 135.244125,189.617310 
	C135.570892,189.977203 135.897659,190.337097 136.032211,191.451935 
	C140.495285,198.258469 144.958359,205.064987 149.289078,211.669662 
	C143.179443,212.710983 136.530548,213.417725 130.107086,215.025299 
	C115.459755,218.691025 103.534904,225.924820 98.947159,241.498627 
	C97.421585,246.677444 95.275810,251.562668 96.608589,257.507385 
	C98.631477,266.530212 101.839050,274.597717 109.009644,281.473724 
	C109.339005,281.680176 109.668365,281.886658 109.987434,282.023041 
	C109.987434,282.023041 109.917984,282.037048 110.134033,282.682556 
	C111.742111,283.818542 113.350197,284.954529 114.984581,286.022980 
	C114.984581,286.022980 114.917831,286.051147 115.168999,286.733002 
	C119.329742,288.416473 123.490479,290.099945 128.455307,292.056763 
	C132.694855,292.631226 136.934418,293.205658 141.958298,293.920715 
	C144.450104,294.452332 146.941925,294.983917 149.048538,295.433350 
	C148.696289,296.217041 148.304749,297.088165 147.978546,297.977875 
	C147.978546,297.977875 147.971344,297.910309 147.436234,298.047577 
	C147.260529,298.356384 147.084824,298.665192 146.978516,298.978668 
	C146.978516,298.978668 146.973511,298.909302 146.438721,299.045898 
	C146.261765,299.353668 146.084808,299.661407 145.975937,299.981689 
	C145.975937,299.981689 145.949448,299.917725 145.331192,300.117645 
	C144.282532,301.433289 143.233887,302.748962 141.841141,304.677338 
	C139.873703,308.110626 137.906265,311.543884 135.302673,315.303619 
	C134.837021,316.863312 134.371368,318.422974 133.973404,319.987030 
	C133.973404,319.987030 133.948166,319.924072 133.228424,320.223846 
	C130.778671,328.067780 128.345886,335.912598 132.012482,344.836670 
	C136.209351,358.112854 144.062195,367.907410 158.256424,372.764862 
	C159.395111,372.899658 160.547180,372.964813 161.670410,373.180206 
	C171.447464,375.055603 180.855911,374.585266 189.476242,368.972839 
	C189.476242,368.972839 189.442001,368.921082 190.227722,368.970612 
	C190.518738,368.322266 190.809753,367.673920 191.826981,366.989410 
	C193.898972,365.683929 195.970963,364.378418 198.769012,363.010986 
	C200.539139,361.692780 202.309280,360.374603 204.016190,359.020477 
	C204.016190,359.020477 204.036057,359.090424 204.575165,358.964996 
	C204.746597,358.654510 204.918030,358.343994 205.022202,358.022583 
	C205.022202,358.022583 205.032288,358.089966 205.569611,357.959076 
	C205.742661,357.649261 205.915726,357.339478 206.021149,357.021027 
	C206.021149,357.021027 206.030045,357.088654 206.568588,356.959167 
	C206.741791,356.648895 206.914993,356.338654 207.018494,356.028198 
	C207.018494,356.028198 207.028214,356.097198 207.792603,356.358917 
	C208.248062,359.243195 208.703537,362.127472 209.011841,365.864655 
	C210.371262,371.062958 211.730682,376.261230 213.012802,381.506317 
	C213.012802,381.506317 213.100525,381.483948 212.995071,382.277832 
	C213.643982,383.544647 214.292877,384.811432 214.972382,386.014099 
	C214.972382,386.014099 214.903198,386.030365 214.984879,386.698914 
	C215.640976,387.494385 216.297073,388.289856 216.976624,389.021332 
	C216.976624,389.021332 216.908585,389.017059 217.040390,389.677368 
	C217.652008,390.105103 218.263641,390.532837 218.992722,391.691589 
	C223.804779,398.438416 229.312195,404.268585 238.129349,406.641449 
	C238.534790,406.718506 238.940231,406.795593 239.459137,407.022034 
	C239.459137,407.022034 239.611816,406.913025 240.108292,407.644012 
	C246.480621,408.804260 252.869690,410.502045 259.863770,406.992828 
	C264.624939,404.451263 270.059906,402.681396 274.020477,399.222961 
	C285.757599,388.974060 291.222076,375.607117 291.686279,359.733582 
	C292.119904,358.519287 292.553497,357.304993 293.103912,356.617584 
	C293.652435,357.055664 294.200928,357.493744 294.996338,358.486115 
	C295.327820,358.687775 295.659302,358.889435 295.985413,359.022125 
	C295.985413,359.022125 295.917969,359.037415 296.133423,359.683594 
	C298.081482,361.152557 300.029572,362.621521 301.984894,364.018707 
	C301.984894,364.018707 301.912933,364.013000 302.046478,364.555420 
	C302.357880,364.734802 302.669281,364.914215 302.982513,365.025604 
	C302.982513,365.025604 302.917297,365.045074 303.152405,365.728882 
	C306.670166,367.581207 310.059692,369.755188 313.732147,371.219482 
	C321.575317,374.346619 329.623657,376.543701 338.886963,373.971161 
	C351.214111,370.417206 360.436310,363.053772 366.026123,351.450745 
	C367.109619,349.201752 367.367401,346.554993 368.713928,343.686829 
	C371.195984,335.386505 369.885010,327.511749 366.021851,319.989655 
	C366.021851,319.989655 366.091675,320.013916 365.996796,319.330017 
	C365.647308,318.807648 365.297852,318.285248 365.000122,317.046509 
	C362.610352,313.071075 360.220551,309.095642 357.988220,304.407593 
	C356.344635,302.578339 354.701080,300.749084 353.021149,298.983521 
	C353.021149,298.983521 353.091522,298.962860 352.959534,298.428986 
	C352.652191,298.255524 352.344849,298.082062 352.023834,297.975800 
	C352.023834,297.975800 352.090912,297.961609 351.959442,297.429199 
	C351.652710,297.255676 351.345947,297.082184 351.023834,296.975830 
	C351.023834,296.975830 351.090637,296.959167 350.964172,296.423584 
	C350.655548,296.252075 350.346924,296.080566 350.033691,295.977966 
	C350.033691,295.977966 350.100220,295.959473 350.304474,295.218140 
	C354.194519,295.096832 358.084564,294.975525 362.801941,294.997345 
	C364.335175,294.668274 365.869751,294.345154 367.401459,294.009125 
	C374.165405,292.524963 380.993958,291.190247 386.618164,285.926910 
	C386.913574,285.755005 387.040985,285.499390 387.546478,284.887970 
	C388.046936,284.269165 388.547394,283.650330 389.558105,282.981812 
	C389.717529,282.920410 389.876984,282.858978 390.622864,282.784576 
	C391.114563,282.189911 391.606293,281.595245 391.988770,280.958405 
	C391.988770,280.958405 391.943970,281.066620 392.484955,280.903107 
	C392.684143,280.593475 392.883331,280.283875 392.997162,279.997955 
	C392.997162,279.997955 393.020660,280.083344 393.521118,279.878754 
	C393.943970,279.336304 394.366821,278.793854 395.034302,277.557526 
	C400.915985,270.235748 404.363983,262.083679 404.024902,252.486908 
	C403.768860,245.239761 400.934204,238.926743 396.951416,233.191742 
	C391.547882,225.411041 384.683960,219.295807 375.001251,216.178833 
	C369.473083,214.777908 363.970337,213.262695 358.405823,212.025269 
	C355.701294,211.423859 352.881195,211.341995 350.030884,211.007812 
	C350.030884,211.007812 350.015320,211.090683 350.553253,210.946991 
	C350.732880,210.636581 350.912476,210.326157 351.017303,210.016403 
	C351.017303,210.016403 351.019592,210.091156 351.561249,209.948761 
	C351.748932,209.638092 351.936584,209.327408 352.006012,208.944687 
	C352.006012,208.944687 351.931061,209.061096 352.373749,208.986282 
z"/>
<path fill="#F9C851" opacity="1.000000" stroke="none" 
	d="
M198.042969,363.072937 
	C195.970963,364.378418 193.898972,365.683929 191.127228,367.078644 
	C190.098984,367.752289 189.770508,368.336700 189.442017,368.921082 
	C189.442001,368.921082 189.476242,368.972839 189.042801,368.867737 
	C181.478683,370.123077 174.381958,371.727295 167.201157,372.727936 
	C164.189529,373.147552 160.999771,372.288635 157.890991,372.010986 
	C144.062195,367.907410 136.209351,358.112854 132.204926,344.154602 
	C132.344849,339.363312 132.052002,335.238922 132.310349,331.149292 
	C132.547974,327.388062 133.378723,323.664337 133.948166,319.924072 
	C133.948166,319.924072 133.973404,319.987030 134.257629,319.910065 
	C135.007507,318.214447 135.473175,316.595825 135.938843,314.977173 
	C137.906265,311.543884 139.873703,308.110626 142.366653,304.335876 
	C143.911255,302.635498 144.930359,301.276611 145.949463,299.917725 
	C145.949448,299.917725 145.975937,299.981689 146.245117,299.965759 
	C146.667374,299.602997 146.820435,299.256134 146.973511,298.909302 
	C146.973511,298.909302 146.978516,298.978668 147.245667,298.956970 
	C147.665680,298.593628 147.818527,298.251984 147.971344,297.910309 
	C147.971344,297.910309 147.978546,297.977875 148.294434,298.015930 
	C149.926483,296.828247 151.242661,295.602509 152.558838,294.376770 
	C152.350372,293.991516 152.141891,293.606262 151.933426,293.221008 
	C148.346939,293.407379 144.760452,293.593750 141.173965,293.780151 
	C136.934418,293.205658 132.694855,292.631226 127.939804,291.636322 
	C123.255470,289.494324 119.086647,287.772736 114.917831,286.051147 
	C114.917831,286.051147 114.984581,286.022980 115.024796,285.697693 
	C113.349335,284.260590 111.633659,283.148834 109.917984,282.037048 
	C109.917984,282.037048 109.987434,282.023041 109.907227,281.764435 
	C109.469498,281.311829 109.111969,281.117828 108.754440,280.923859 
	C101.839050,274.597717 98.631477,266.530212 96.608589,257.507385 
	C95.275810,251.562668 97.421585,246.677444 98.947159,241.498627 
	C103.534904,225.924820 115.459755,218.691025 130.107086,215.025299 
	C136.530548,213.417725 143.179443,212.710983 149.289078,211.669662 
	C144.958359,205.064987 140.495285,198.258469 136.157349,190.902359 
	C135.928772,189.943008 135.575089,189.533234 135.221390,189.123459 
	C135.221390,189.123459 135.025406,188.671295 135.041351,188.007446 
	C132.679886,179.263428 130.861526,171.149551 132.986252,162.672775 
	C133.289627,161.462402 133.035019,160.112152 133.038666,158.826645 
	C136.040268,149.091660 142.263580,142.072571 151.906967,137.217865 
	C160.916000,134.562973 169.244141,132.616150 177.946823,134.854706 
	C189.159439,135.776642 197.439804,142.382660 205.633469,149.149857 
	C206.247345,149.656891 206.793808,150.245544 208.231216,151.615540 
	C208.894882,145.990479 209.441528,141.285614 210.006546,136.582947 
	C211.224075,126.449745 215.312576,117.538139 222.872955,110.781029 
	C227.525146,106.623138 232.911362,102.835869 238.624603,100.463257 
	C242.932053,98.674446 248.334320,98.734169 253.156769,99.121796 
	C267.276886,100.256790 277.567261,108.334671 284.720184,119.764488 
	C289.566925,127.509201 291.342773,136.784637 291.992859,146.037643 
	C292.103485,147.611877 292.008514,149.200546 292.008514,150.523438 
	C298.914062,145.884827 305.519531,141.447754 312.903168,137.054535 
	C325.074951,133.314301 336.454071,133.075317 347.815125,137.238434 
	C359.390411,143.176498 367.216034,151.992325 368.978546,165.284973 
	C371.221924,182.204010 364.661224,195.873001 352.777954,208.073120 
	C352.423859,208.830490 352.230774,209.004654 351.931061,209.061096 
	C351.931061,209.061096 352.006012,208.944687 351.767944,209.021027 
	C351.359772,209.428619 351.189697,209.759888 351.019592,210.091156 
	C351.019592,210.091156 351.017303,210.016403 350.766663,210.060028 
	C350.349091,210.432678 350.182220,210.761673 350.015320,211.090683 
	C350.015320,211.090683 350.030884,211.007812 349.733887,211.020813 
	C349.875122,211.704849 350.225433,212.877136 350.764771,212.971741 
	C358.866272,214.392792 366.992676,215.671936 375.113220,216.984436 
	C384.683960,219.295807 391.547882,225.411041 396.951416,233.191742 
	C400.934204,238.926743 403.768860,245.239761 404.024902,252.486908 
	C404.363983,262.083679 400.915985,270.235748 394.654266,277.983276 
	C393.856384,278.967163 393.438507,279.525238 393.020660,280.083344 
	C393.020660,280.083344 392.997162,279.997955 392.889160,280.207947 
	C392.502075,280.634155 392.223022,280.850372 391.943970,281.066620 
	C391.943970,281.066620 391.988770,280.958405 391.760925,281.056976 
	C391.034210,281.702881 390.535339,282.250214 390.036469,282.797516 
	C389.876984,282.858978 389.717529,282.920410 389.002075,283.105804 
	C387.964142,283.873199 387.482269,284.516602 387.000366,285.160004 
	C387.040985,285.499390 386.913574,285.755005 386.012817,286.005371 
	C377.022461,288.745270 368.637421,291.406769 359.771545,294.031311 
	C356.202118,294.008606 353.113525,294.022827 350.024963,294.037048 
	C350.050049,294.677856 350.075134,295.318665 350.100220,295.959473 
	C350.100220,295.959473 350.033691,295.977966 350.027435,296.257202 
	C350.377655,296.677368 350.734161,296.818268 351.090637,296.959167 
	C351.090637,296.959167 351.023834,296.975830 351.027771,297.253082 
	C351.384796,297.674103 351.737854,297.817841 352.090912,297.961609 
	C352.090912,297.961609 352.023834,297.975800 352.028046,298.252197 
	C352.385345,298.673340 352.738434,298.818115 353.091522,298.962860 
	C353.091522,298.962860 353.021149,298.983521 352.940552,299.300903 
	C354.516907,301.452271 356.173828,303.286224 357.830780,305.120209 
	C360.220551,309.095642 362.610352,313.071075 364.999634,317.742371 
	C365.363342,318.963440 365.727509,319.488678 366.091675,320.013916 
	C366.091675,320.013916 366.021851,319.989655 365.946594,320.373413 
	C366.582916,328.535339 367.294464,336.313507 368.006042,344.091705 
	C367.367401,346.554993 367.109619,349.201752 366.026123,351.450745 
	C360.436310,363.053772 351.214111,370.417206 338.180969,373.632019 
	C328.681763,373.329803 320.028778,372.755005 311.958008,368.640991 
	C309.081024,367.174438 305.938568,366.228577 302.917297,365.045074 
	C302.917297,365.045074 302.982513,365.025604 302.932129,364.776855 
	C302.558777,364.356384 302.235840,364.184692 301.912933,364.013000 
	C301.912933,364.013000 301.984894,364.018707 301.954895,363.705658 
	C299.922577,361.940857 297.920288,360.489136 295.917969,359.037415 
	C295.917969,359.037415 295.985413,359.022125 295.909546,358.757935 
	C295.472260,358.306427 295.110840,358.119141 294.749420,357.931854 
	C294.200928,357.493744 293.652435,357.055664 292.969391,356.046844 
	C292.525146,354.621979 292.215424,353.767883 291.905701,352.913788 
	C291.269135,353.325714 290.632599,353.737640 289.996063,354.149567 
	C290.367279,356.099609 290.738495,358.049683 291.109741,359.999725 
	C291.222076,375.607117 285.757599,388.974060 274.020477,399.222961 
	C270.059906,402.681396 264.624939,404.451263 259.009033,406.973816 
	C251.973450,406.940857 245.792633,406.926941 239.611816,406.913025 
	C239.611816,406.913025 239.459137,407.022034 239.217621,406.721069 
	C238.617996,406.291992 238.259872,406.163879 237.901749,406.035767 
	C229.312195,404.268585 223.804779,398.438416 218.839737,391.042419 
	C218.094025,389.934509 217.501312,389.475800 216.908585,389.017059 
	C216.908585,389.017059 216.976624,389.021332 217.055099,388.697693 
	C216.390106,387.592834 215.646652,386.811615 214.903198,386.030365 
	C214.903198,386.030365 214.972382,386.014099 215.085785,385.681702 
	C214.499634,384.060883 213.800079,382.772400 213.100525,381.483948 
	C213.100525,381.483948 213.012802,381.506317 213.117859,381.034058 
	C212.144638,375.375610 211.066376,370.189362 210.028366,364.548096 
	C210.015442,361.501282 210.072845,358.899353 209.836563,356.324432 
	C209.772003,355.620758 208.825562,354.998016 208.283829,354.338135 
	C207.865280,354.924500 207.446747,355.510834 207.028214,356.097198 
	C207.028214,356.097198 207.018494,356.028198 206.758453,356.054626 
	C206.342300,356.416962 206.186188,356.752808 206.030060,357.088654 
	C206.030045,357.088654 206.021149,357.021027 205.759399,357.050476 
	C205.342545,357.416626 205.187424,357.753296 205.032288,358.089966 
	C205.032288,358.089966 205.022202,358.022583 204.755844,358.044373 
	C204.338333,358.407593 204.187195,358.748993 204.036057,359.090424 
	C204.036057,359.090424 204.016190,359.020477 203.695740,358.957275 
	C201.597855,360.287018 199.820404,361.679993 198.042969,363.072937 
M284.976227,212.497681 
	C271.217651,200.485199 255.228302,195.920975 237.690079,200.811066 
	C208.234070,209.024124 193.137421,232.706223 198.909851,263.824188 
	C200.056076,270.003204 202.737747,276.411255 206.386200,281.516876 
	C217.799225,297.488281 233.357086,305.277802 253.509979,304.176910 
	C272.578796,303.135254 286.115753,293.796844 295.818268,278.257141 
	C308.903748,257.299255 304.053894,228.035110 284.976227,212.497681 
z"/>
<path fill="#FAEDBF" opacity="1.000000" stroke="none" 
	d="
M303.034851,365.386963 
	C305.938568,366.228577 309.081024,367.174438 311.958008,368.640991 
	C320.028778,372.755005 328.681763,373.329803 337.807007,373.561890 
	C329.623657,376.543701 321.575317,374.346619 313.732147,371.219482 
	C310.059692,369.755188 306.670166,367.581207 303.034851,365.386963 
z"/>
<path fill="#FEF1C6" opacity="1.000000" stroke="none" 
	d="
M347.855286,136.839645 
	C336.454071,133.075317 325.074951,133.314301 313.260986,137.063156 
	C315.977722,135.681320 319.093170,133.258484 322.256012,133.194855 
	C330.889221,133.021164 339.870544,131.406082 347.855286,136.839645 
z"/>
<path fill="#FEF8D2" opacity="1.000000" stroke="none" 
	d="
M158.073700,372.387939 
	C160.999771,372.288635 164.189529,373.147552 167.201157,372.727936 
	C174.381958,371.727295 181.478683,370.123077 189.039688,368.836975 
	C180.855911,374.585266 171.447464,375.055603 161.670410,373.180206 
	C160.547180,372.964813 159.395111,372.899658 158.073700,372.387939 
z"/>
<path fill="#FDF3C8" opacity="1.000000" stroke="none" 
	d="
M375.057251,216.581635 
	C366.992676,215.671936 358.866272,214.392792 350.764771,212.971741 
	C350.225433,212.877136 349.875122,211.704849 349.775177,211.029388 
	C352.881195,211.341995 355.701294,211.423859 358.405823,212.025269 
	C363.970337,213.262695 369.473083,214.777908 375.057251,216.581635 
z"/>
<path fill="#FCEFC3" opacity="1.000000" stroke="none" 
	d="
M360.252380,294.068268 
	C368.637421,291.406769 377.022461,288.745270 385.789673,286.037903 
	C380.993958,291.190247 374.165405,292.524963 367.401459,294.009125 
	C365.869751,294.345154 364.335175,294.668274 362.207825,294.757843 
	C361.159943,294.368317 360.706177,294.218292 360.252380,294.068268 
z"/>
<path fill="#FDF3C8" opacity="1.000000" stroke="none" 
	d="
M132.654648,159.015228 
	C133.035019,160.112152 133.289627,161.462402 132.986252,162.672775 
	C130.861526,171.149551 132.679886,179.263428 135.051392,187.761230 
	C129.208862,180.427505 130.965820,171.601364 131.516068,162.959625 
	C131.596466,161.696793 132.010818,160.455231 132.654648,159.015228 
z"/>
<path fill="#FCEBB3" opacity="1.000000" stroke="none" 
	d="
M368.359985,343.889282 
	C367.294464,336.313507 366.582916,328.535339 365.959473,320.338745 
	C369.885010,327.511749 371.195984,335.386505 368.359985,343.889282 
z"/>
<path fill="#FCEBB3" opacity="1.000000" stroke="none" 
	d="
M133.588287,320.073975 
	C133.378723,323.664337 132.547974,327.388062 132.310349,331.149292 
	C132.052002,335.238922 132.344849,339.363312 132.187195,343.774078 
	C128.345886,335.912598 130.778671,328.067780 133.588287,320.073975 
z"/>
<path fill="#FCEEB7" opacity="1.000000" stroke="none" 
	d="
M177.766586,134.503067 
	C169.244141,132.616150 160.916000,134.562973 152.225845,137.085663 
	C159.885712,131.500534 168.670609,132.244675 177.766586,134.503067 
z"/>
<path fill="#FBF0C6" opacity="1.000000" stroke="none" 
	d="
M239.860046,407.278503 
	C245.792633,406.926941 251.973450,406.940857 258.626343,407.003540 
	C252.869690,410.502045 246.480621,408.804260 239.860046,407.278503 
z"/>
<path fill="#FDF2C1" opacity="1.000000" stroke="none" 
	d="
M141.566132,293.850433 
	C144.760452,293.593750 148.346939,293.407379 151.933426,293.221008 
	C152.141891,293.606262 152.350372,293.991516 152.558838,294.376770 
	C151.242661,295.602509 149.926483,296.828247 148.261749,298.006653 
	C148.304749,297.088165 148.696289,296.217041 149.048538,295.433350 
	C146.941925,294.983917 144.450104,294.452332 141.566132,293.850433 
z"/>
<path fill="#FDF3C8" opacity="1.000000" stroke="none" 
	d="
M209.988098,365.003143 
	C211.066376,370.189362 212.144638,375.375610 213.156494,381.010681 
	C211.730682,376.261230 210.371262,371.062958 209.292694,365.436829 
	C209.573563,365.008972 209.988098,365.003143 209.988098,365.003143 
z"/>
<path fill="#FEF3CD" opacity="1.000000" stroke="none" 
	d="
M115.043411,286.392090 
	C119.086647,287.772736 123.255470,289.494324 127.537750,291.499634 
	C123.490479,290.099945 119.329742,288.416473 115.043411,286.392090 
z"/>
<path fill="#FFF1BD" opacity="1.000000" stroke="none" 
	d="
M359.771545,294.031311 
	C360.706177,294.218292 361.159943,294.368317 361.794189,294.686279 
	C358.084564,294.975525 354.194519,295.096832 350.202332,295.588806 
	C350.075134,295.318665 350.050049,294.677856 350.024963,294.037048 
	C353.113525,294.022827 356.202118,294.008606 359.771545,294.031311 
z"/>
<path fill="#FCEBB3" opacity="1.000000" stroke="none" 
	d="
M210.028366,364.548096 
	C209.988098,365.003143 209.573563,365.008972 209.366287,365.010376 
	C208.703537,362.127472 208.248062,359.243195 207.410400,356.228058 
	C207.446747,355.510834 207.865280,354.924500 208.283829,354.338135 
	C208.825562,354.998016 209.772003,355.620758 209.836563,356.324432 
	C210.072845,358.899353 210.015442,361.501282 210.028366,364.548096 
z"/>
<path fill="#FAEDBF" opacity="1.000000" stroke="none" 
	d="
M291.398010,359.866638 
	C290.738495,358.049683 290.367279,356.099609 289.996063,354.149567 
	C290.632599,353.737640 291.269135,353.325714 291.905701,352.913788 
	C292.215424,353.767883 292.525146,354.621979 292.910980,355.783386 
	C292.553497,357.304993 292.119904,358.519287 291.398010,359.866638 
z"/>
<path fill="#FAEDBF" opacity="1.000000" stroke="none" 
	d="
M296.025696,359.360504 
	C297.920288,360.489136 299.922577,361.940857 301.951263,363.741577 
	C300.029572,362.621521 298.081482,361.152557 296.025696,359.360504 
z"/>
<path fill="#FFF1BD" opacity="1.000000" stroke="none" 
	d="
M357.909485,304.763916 
	C356.173828,303.286224 354.516907,301.452271 352.958740,299.269043 
	C354.701080,300.749084 356.344635,302.578339 357.909485,304.763916 
z"/>
<path fill="#FCEBB3" opacity="1.000000" stroke="none" 
	d="
M198.405991,363.041992 
	C199.820404,361.679993 201.597855,360.287018 203.727356,358.975220 
	C202.309280,360.374603 200.539139,361.692780 198.405991,363.041992 
z"/>
<path fill="#FEF3CD" opacity="1.000000" stroke="none" 
	d="
M110.026009,282.359802 
	C111.633659,283.148834 113.349335,284.260590 115.011642,285.731445 
	C113.350197,284.954529 111.742111,283.818542 110.026009,282.359802 
z"/>
<path fill="#FDF2C1" opacity="1.000000" stroke="none" 
	d="
M145.640320,300.017700 
	C144.930359,301.276611 143.911255,302.635498 142.538696,304.029510 
	C143.233887,302.748962 144.282532,301.433289 145.640320,300.017700 
z"/>
<path fill="#FCEBB3" opacity="1.000000" stroke="none" 
	d="
M135.620758,315.140381 
	C135.473175,316.595825 135.007507,318.214447 134.223785,319.907898 
	C134.371368,318.422974 134.837021,316.863312 135.620758,315.140381 
z"/>
<path fill="#FDF3C8" opacity="1.000000" stroke="none" 
	d="
M213.047791,381.880890 
	C213.800079,382.772400 214.499634,384.060883 215.070496,385.713806 
	C214.292877,384.811432 213.643982,383.544647 213.047791,381.880890 
z"/>
<path fill="#FDF3C8" opacity="1.000000" stroke="none" 
	d="
M214.944031,386.364624 
	C215.646652,386.811615 216.390106,387.592834 217.043365,388.729675 
	C216.297073,388.289856 215.640976,387.494385 214.944031,386.364624 
z"/>
<path fill="#FDF3C8" opacity="1.000000" stroke="none" 
	d="
M216.974487,389.347229 
	C217.501312,389.475800 218.094025,389.934509 218.781006,390.676910 
	C218.263641,390.532837 217.652008,390.105103 216.974487,389.347229 
z"/>
<path fill="#FDF3C8" opacity="1.000000" stroke="none" 
	d="
M135.232758,189.370392 
	C135.575089,189.533234 135.928772,189.943008 136.253448,190.524887 
	C135.897659,190.337097 135.570892,189.977203 135.232758,189.370392 
z"/>
<path fill="#FCEFC3" opacity="1.000000" stroke="none" 
	d="
M393.270874,279.981049 
	C393.438507,279.525238 393.856384,278.967163 394.531952,278.330231 
	C394.366821,278.793854 393.943970,279.336304 393.270874,279.981049 
z"/>
<path fill="#FCEFC3" opacity="1.000000" stroke="none" 
	d="
M387.273438,285.023987 
	C387.482269,284.516602 387.964142,283.873199 388.746948,283.130646 
	C388.547394,283.650330 388.046936,284.269165 387.273438,285.023987 
z"/>
<path fill="#FCEFC3" opacity="1.000000" stroke="none" 
	d="
M390.329651,282.791046 
	C390.535339,282.250214 391.034210,281.702881 391.815521,281.078064 
	C391.606293,281.595245 391.114563,282.189911 390.329651,282.791046 
z"/>
<path fill="#FCEBB3" opacity="1.000000" stroke="none" 
	d="
M366.044250,319.671967 
	C365.727509,319.488678 365.363342,318.963440 364.973755,318.100555 
	C365.297852,318.285248 365.647308,318.807648 366.044250,319.671967 
z"/>
<path fill="#FEF8D2" opacity="1.000000" stroke="none" 
	d="
M189.834869,368.945862 
	C189.770508,368.336700 190.098984,367.752289 190.764114,367.096741 
	C190.809753,367.673920 190.518738,368.322266 189.834869,368.945862 
z"/>
<path fill="#FDF3C8" opacity="1.000000" stroke="none" 
	d="
M350.284302,211.018829 
	C350.182220,210.761673 350.349091,210.432678 350.804047,210.059708 
	C350.912476,210.326157 350.732880,210.636581 350.284302,211.018829 
z"/>
<path fill="#FCEBB3" opacity="1.000000" stroke="none" 
	d="
M205.300964,358.024536 
	C205.187424,357.753296 205.342545,357.416626 205.793228,357.054810 
	C205.915726,357.339478 205.742661,357.649261 205.300964,358.024536 
z"/>
<path fill="#FCEBB3" opacity="1.000000" stroke="none" 
	d="
M204.305603,359.027710 
	C204.187195,358.748993 204.338333,358.407593 204.789474,358.049835 
	C204.918030,358.343994 204.746597,358.654510 204.305603,359.027710 
z"/>
<path fill="#FAEDBF" opacity="1.000000" stroke="none" 
	d="
M294.872864,358.208984 
	C295.110840,358.119141 295.472260,358.306427 295.912231,358.792389 
	C295.659302,358.889435 295.327820,358.687775 294.872864,358.208984 
z"/>
<path fill="#FFF1BD" opacity="1.000000" stroke="none" 
	d="
M353.025513,298.695923 
	C352.738434,298.818115 352.385345,298.673340 352.034882,298.218628 
	C352.344849,298.082062 352.652191,298.255524 353.025513,298.695923 
z"/>
<path fill="#FDF2C1" opacity="1.000000" stroke="none" 
	d="
M147.703796,297.978943 
	C147.818527,298.251984 147.665680,298.593628 147.210968,298.954651 
	C147.084824,298.665192 147.260529,298.356384 147.703796,297.978943 
z"/>
<path fill="#FAEDBF" opacity="1.000000" stroke="none" 
	d="
M301.979706,364.284210 
	C302.235840,364.184692 302.558777,364.356384 302.931183,364.810852 
	C302.669281,364.914215 302.357880,364.734802 301.979706,364.284210 
z"/>
<path fill="#FFF1BD" opacity="1.000000" stroke="none" 
	d="
M352.025177,297.695404 
	C351.737854,297.817841 351.384796,297.674103 351.035461,297.219513 
	C351.345947,297.082184 351.652710,297.255676 352.025177,297.695404 
z"/>
<path fill="#FDF3C8" opacity="1.000000" stroke="none" 
	d="
M351.290405,210.019958 
	C351.189697,209.759888 351.359772,209.428619 351.827057,209.057037 
	C351.936584,209.327408 351.748932,209.638092 351.290405,210.019958 
z"/>
<path fill="#FCEBB3" opacity="1.000000" stroke="none" 
	d="
M206.299316,357.023926 
	C206.186188,356.752808 206.342300,356.416962 206.793304,356.054749 
	C206.914993,356.338654 206.741791,356.648895 206.299316,357.023926 
z"/>
<path fill="#FDF3C8" opacity="1.000000" stroke="none" 
	d="
M352.152405,209.023682 
	C352.230774,209.004654 352.423859,208.830490 352.665375,208.414429 
	C352.852509,208.638077 352.703613,208.870087 352.152405,209.023682 
z"/>
<path fill="#FFF1BD" opacity="1.000000" stroke="none" 
	d="
M351.027405,296.691376 
	C350.734161,296.818268 350.377655,296.677368 350.029724,296.222778 
	C350.346924,296.080566 350.655548,296.252075 351.027405,296.691376 
z"/>
<path fill="#FEF3CD" opacity="1.000000" stroke="none" 
	d="
M108.882042,281.198792 
	C109.111969,281.117828 109.469498,281.311829 109.912369,281.799500 
	C109.668365,281.886658 109.339005,281.680176 108.882042,281.198792 
z"/>
<path fill="#FDF2C1" opacity="1.000000" stroke="none" 
	d="
M146.706116,298.977600 
	C146.820435,299.256134 146.667374,299.602997 146.211075,299.959503 
	C146.084808,299.661407 146.261765,299.353668 146.706116,298.977600 
z"/>
<path fill="#FBF0C6" opacity="1.000000" stroke="none" 
	d="
M238.015549,406.338623 
	C238.259872,406.163879 238.617996,406.291992 239.160889,406.646362 
	C238.940231,406.795593 238.534790,406.718506 238.015549,406.338623 
z"/>
<path fill="#FCEFC3" opacity="1.000000" stroke="none" 
	d="
M392.214478,280.984863 
	C392.223022,280.850372 392.502075,280.634155 392.931824,280.196106 
	C392.883331,280.283875 392.684143,280.593475 392.214478,280.984863 
z"/>
<path fill="#E6A430" opacity="1.000000" stroke="none" 
	d="
M285.231079,212.747238 
	C304.053894,228.035110 308.903748,257.299255 295.818268,278.257141 
	C286.115753,293.796844 272.578796,303.135254 253.509979,304.176910 
	C233.357086,305.277802 217.799225,297.488281 206.386200,281.516876 
	C202.737747,276.411255 200.056076,270.003204 198.909851,263.824188 
	C193.137421,232.706223 208.234070,209.024124 237.690079,200.811066 
	C255.228302,195.920975 271.217651,200.485199 285.231079,212.747238 
z"/>
</svg>